<?xml version="1.0" encoding="UTF-8" standalone="no"?>
<!-- Created with Inkscape (http://www.inkscape.org/) -->

<svg
   width="143.14961mm"
   height="37.810188mm"
   viewBox="0 0 143.14961 37.810188"
   version="1.1"
   id="svg1"
   xmlns="http://www.w3.org/2000/svg"
   xmlns:svg="http://www.w3.org/2000/svg">
  <defs
     id="defs1" />
  <g
     id="layer1"
     transform="translate(-0.88192227,-0.8457723)">
    <path
       style="opacity:0.5;fill:#570026;fill-rule:nonzero;stroke:none;stroke-width:0.269273;stroke-linecap:butt;stroke-linejoin:miter;stroke-miterlimit:4;stroke-dasharray:none;stroke-dashoffset:0"
       d="M 50.025322,37.319945 V 2.0492454 c 0,-0.25374 -0.06858,-0.42291 -0.17145,-0.42291 -0.10287,0 -0.17145,0.16917 -0.17145,0.42291 V 37.277655 c 0,0.25374 0.06858,0.42291 0.17145,0.42291 0.10287,0 0.17145,-0.16917 0.17145,-0.38062 z"
       stroke-linecap="round"
       id="path1" />
    <g
       transform="matrix(0.28322238,0,0,0.28322238,19.758694,19.736705)"
       id="g16">
<g
   id="g15">
		<g
   transform="translate(-52.6,-52.55)"
   id="g3">
<rect
   style="opacity:1;fill:#f65843;fill-rule:nonzero;stroke:none;stroke-width:1;stroke-linecap:butt;stroke-linejoin:miter;stroke-miterlimit:4;stroke-dasharray:none;stroke-dashoffset:0"
   x="-14.05"
   y="-14.05"
   rx="0"
   ry="0"
   width="28.1"
   height="28.1"
   id="rect2" />

</g>

		<g
   transform="translate(54.5,22.95)"
   id="g4">
<rect
   style="opacity:1;fill:#f7d11e;fill-rule:nonzero;stroke:none;stroke-width:1;stroke-linecap:butt;stroke-linejoin:miter;stroke-miterlimit:4;stroke-dasharray:none;stroke-dashoffset:0"
   x="-12.25"
   y="-12.25"
   rx="0"
   ry="0"
   width="24.5"
   height="24.5"
   id="rect3" />

</g>

		<g
   transform="translate(32.7,-17.05)"
   id="g5">
<rect
   style="opacity:1;fill:#3fb5bf;fill-rule:nonzero;stroke:none;stroke-width:1;stroke-linecap:butt;stroke-linejoin:miter;stroke-miterlimit:4;stroke-dasharray:none;stroke-dashoffset:0"
   x="-9.4499998"
   y="-13.05"
   rx="0"
   ry="0"
   width="18.9"
   height="26.1"
   id="rect4" />

</g>

		<g
   transform="translate(57.6,57.95)"
   id="g6">
<rect
   style="opacity:1;fill:#f65843;fill-rule:nonzero;stroke:none;stroke-width:1;stroke-linecap:butt;stroke-linejoin:miter;stroke-miterlimit:4;stroke-dasharray:none;stroke-dashoffset:0"
   x="-8.8500004"
   y="-8.8500004"
   rx="0"
   ry="0"
   width="17.700001"
   height="17.700001"
   id="rect5" />

</g>

		<g
   transform="translate(-51.3,-3.95)"
   id="g7">
<rect
   style="opacity:1;fill:#f7d11e;fill-rule:nonzero;stroke:none;stroke-width:1;stroke-linecap:butt;stroke-linejoin:miter;stroke-miterlimit:4;stroke-dasharray:none;stroke-dashoffset:0"
   x="-15.35"
   y="-19.85"
   rx="0"
   ry="0"
   width="30.700001"
   height="39.700001"
   id="rect6" />

</g>

		<g
   transform="translate(-5.55,8.3)"
   id="g8">
<rect
   style="opacity:1;fill:#f65843;fill-rule:nonzero;stroke:none;stroke-width:1;stroke-linecap:butt;stroke-linejoin:miter;stroke-miterlimit:4;stroke-dasharray:none;stroke-dashoffset:0"
   x="-15.9"
   y="-22.4"
   rx="0"
   ry="0"
   width="31.799999"
   height="44.799999"
   id="rect7" />

</g>

		<g
   transform="translate(54.35,-54.5)"
   id="g9">
<rect
   style="opacity:1;fill:#f65843;fill-rule:nonzero;stroke:none;stroke-width:1;stroke-linecap:butt;stroke-linejoin:miter;stroke-miterlimit:4;stroke-dasharray:none;stroke-dashoffset:0"
   x="-12.1"
   y="-12.1"
   rx="0"
   ry="0"
   width="24.200001"
   height="24.200001"
   id="rect8" />

</g>

		<g
   transform="translate(-13.35,57.95)"
   id="g10">
<rect
   style="opacity:1;fill:#f7d11e;fill-rule:nonzero;stroke:none;stroke-width:1;stroke-linecap:butt;stroke-linejoin:miter;stroke-miterlimit:4;stroke-dasharray:none;stroke-dashoffset:0"
   x="-20"
   y="-8.8500004"
   rx="0"
   ry="0"
   width="40"
   height="17.700001"
   id="rect9" />

</g>

		<g
   transform="translate(2.55,-54.5)"
   id="g11">
<rect
   style="opacity:1;fill:#f7d11e;fill-rule:nonzero;stroke:none;stroke-width:1;stroke-linecap:butt;stroke-linejoin:miter;stroke-miterlimit:4;stroke-dasharray:none;stroke-dashoffset:0"
   x="-12.2"
   y="-12.2"
   rx="0"
   ry="0"
   width="24.4"
   height="24.4"
   id="rect10" />

</g>

		<g
   transform="translate(-59.65,53.3)"
   id="g12">
<rect
   style="opacity:1;fill:#3fb5bf;fill-rule:nonzero;stroke:none;stroke-width:1;stroke-linecap:butt;stroke-linejoin:miter;stroke-miterlimit:4;stroke-dasharray:none;stroke-dashoffset:0"
   x="-7"
   y="-13.4"
   rx="0"
   ry="0"
   width="14"
   height="26.799999"
   id="rect11" />

</g>

		<g
   transform="translate(62.9,-14.35)"
   id="g13">
<rect
   style="opacity:1;fill:#f7d11e;fill-rule:nonzero;stroke:none;stroke-width:1;stroke-linecap:butt;stroke-linejoin:miter;stroke-miterlimit:4;stroke-dasharray:none;stroke-dashoffset:0"
   x="-3.55"
   y="-7.3499999"
   rx="0"
   ry="0"
   width="7.0999999"
   height="14.7"
   id="rect12" />

</g>

		<g
   transform="translate(25.9,61.45)"
   id="g14">
<rect
   style="opacity:1;fill:#3fb5bf;fill-rule:nonzero;stroke:none;stroke-width:1;stroke-linecap:butt;stroke-linejoin:miter;stroke-miterlimit:4;stroke-dasharray:none;stroke-dashoffset:0"
   x="-5.25"
   y="-5.25"
   rx="0"
   ry="0"
   width="10.5"
   height="10.5"
   id="rect13" />

</g>

</g>

</g>
    <g
       transform="matrix(0.57149999,0,0,0.57149999,99.14592,19.165205)"
       id="g28">
      <path
         fill="#570026"
         opacity="1"
         d="m -64.02,-9.98 v 1.04 q 0,1.36 -0.36,2.56 -0.36,1.2 -1.26,2.09 -0.9,0.89 -2.41,1.41 -1.51,0.52 -3.81,0.52 v 0 h -0.72 q -1.54,0 -3.04,-0.1 -1.5,-0.1 -2.92,-0.3 v 0 -13.38 q 1.42,-0.22 2.92,-0.32 1.5,-0.1 3.04,-0.1 v 0 h 0.72 q 2.3,0 3.81,0.52 1.51,0.52 2.41,1.41 0.9,0.89 1.26,2.09 0.36,1.2 0.36,2.56 z m -8.46,4.46 v 0 q 1.8,0 2.77,-0.29 0.97,-0.29 1.42,-0.82 0.45,-0.53 0.52,-1.25 0.07,-0.72 0.07,-1.58 v 0 q 0,-0.86 -0.07,-1.58 -0.07,-0.72 -0.52,-1.24 -0.45,-0.52 -1.42,-0.81 -0.97,-0.29 -2.77,-0.29 v 0 q -0.52,0 -1.15,0.02 -0.63,0.02 -1.31,0.06 v 0 7.7 q 0.68,0.04 1.31,0.06 0.63,0.02 1.15,0.02 z"
         id="path15" />
      <path
         fill="#570026"
         opacity="1"
         d="m -44.86,-2.76 h -3.48 l -2.68,-4.2 q -1.08,0 -2.08,-0.02 -1,-0.02 -1.96,-0.18 v 0 4.4 h -3.6 v -13.4 q 1.72,-0.2 3.61,-0.3 1.89,-0.1 3.71,-0.1 v 0 h 0.56 q 1.68,0 2.78,0.35 1.1,0.35 1.76,0.95 0.66,0.6 0.92,1.4 0.26,0.8 0.26,1.7 v 0 0.8 q 0,1.26 -0.5,2.29 -0.5,1.03 -1.78,1.59 v 0 l 2.48,3.92 z m -6.44,-10.6 v 0 q -0.7,0 -1.73,0.04 -1.03,0.04 -2.03,0.14 v 0 2.84 q 0.94,0.12 1.78,0.15 0.84,0.03 1.36,0.03 v 0 q 1.2,0 1.86,-0.11 0.66,-0.11 0.97,-0.33 0.31,-0.22 0.37,-0.56 0.06,-0.34 0.06,-0.82 v 0 q 0,-0.26 -0.04,-0.51 -0.04,-0.25 -0.29,-0.45 -0.25,-0.2 -0.79,-0.31 -0.54,-0.11 -1.52,-0.11 z"
         id="path16" />
      <path
         fill="#570026"
         opacity="1"
         d="m -26.46,-16.16 v 3.2 h -9.22 v 2 h 7.22 v 3.2 h -7.22 v 1.8 h 9.22 v 3.2 h -12.82 v -13.4 z"
         id="path17" />
      <path
         fill="#570026"
         opacity="1"
         d="m -18.34,-2.76 h -3.24 v -0.8 l 5.96,-12.6 h 3.6 l 5.96,12.6 v 0.8 H -9.3 l -1.16,-2.6 h -6.74 z m 2.48,-5.6 h 4.08 l -2.04,-4.58 z"
         id="path18" />
      <path
         fill="#570026"
         opacity="1"
         d="M 8.2,-5.5 H 6.36 L 2.6,-10.76 v 8 H -1 v -13.4 h 3.6 l 4.68,6.86 4.68,-6.86 h 3.6 v 13.4 h -3.6 v -8 z"
         id="path19" />
      <path
         fill="#570026"
         opacity="1"
         d="m -65.72,1.92 v 3.2 h -9.22 v 2 h 7.22 v 3.2 h -7.22 v 1.8 h 9.22 v 3.2 H -78.54 V 1.92 Z"
         id="path20" />
      <path
         fill="#570026"
         opacity="1"
         d="m -45.86,8.1 v 1.04 q 0,1.36 -0.36,2.56 -0.36,1.2 -1.26,2.09 -0.9,0.89 -2.41,1.41 -1.51,0.52 -3.81,0.52 v 0 h -0.72 q -1.54,0 -3.04,-0.1 -1.5,-0.1 -2.92,-0.3 v 0 -13.38 q 1.42,-0.22 2.92,-0.32 1.5,-0.1 3.04,-0.1 v 0 h 0.72 q 2.3,0 3.81,0.52 1.51,0.52 2.41,1.41 0.9,0.89 1.26,2.09 0.36,1.2 0.36,2.56 z m -8.46,4.46 v 0 q 1.8,0 2.77,-0.29 0.97,-0.29 1.42,-0.82 0.45,-0.53 0.52,-1.25 0.07,-0.72 0.07,-1.58 v 0 q 0,-0.86 -0.07,-1.58 Q -49.68,6.32 -50.13,5.8 -50.58,5.28 -51.55,4.99 -52.52,4.7 -54.32,4.7 v 0 q -0.52,0 -1.15,0.02 -0.63,0.02 -1.31,0.06 v 0 7.7 q 0.68,0.04 1.31,0.06 0.63,0.02 1.15,0.02 z"
         id="path21" />
      <path
         fill="#570026"
         opacity="1"
         d="m -29.8,1.92 h 3.6 v 7.82 q 0,1.24 -0.32,2.32 -0.32,1.08 -1.1,1.9 -0.78,0.82 -2.1,1.29 -1.32,0.47 -3.32,0.47 v 0 h -0.72 q -2,0 -3.32,-0.47 -1.32,-0.47 -2.1,-1.29 -0.78,-0.82 -1.1,-1.9 -0.32,-1.08 -0.32,-2.32 v 0 -7.82 h 3.6 v 7.3 q 0,0.66 0.06,1.25 0.06,0.59 0.39,1.05 0.33,0.46 1.06,0.73 0.73,0.27 2.09,0.27 v 0 q 1.34,0 2.08,-0.27 0.74,-0.27 1.07,-0.73 0.33,-0.46 0.39,-1.05 0.06,-0.59 0.06,-1.25 v 0 z"
         id="path22" />
      <path
         fill="#570026"
         opacity="1"
         d="M -20.74,9.14 V 8.1 q 0,-1.36 0.34,-2.56 0.34,-1.2 1.16,-2.09 0.82,-0.89 2.22,-1.41 1.4,-0.52 3.52,-0.52 v 0 h 0.72 q 1.36,0 2.64,0.17 1.28,0.17 2.52,0.49 v 0 3.26 Q -8.32,5.24 -9.03,5.1 -9.74,4.96 -10.43,4.87 -11.12,4.78 -11.75,4.74 -12.38,4.7 -12.88,4.7 v 0 q -1.56,0 -2.41,0.29 -0.85,0.29 -1.24,0.81 -0.39,0.52 -0.46,1.24 -0.07,0.72 -0.07,1.58 v 0 q 0,0.86 0.07,1.58 0.07,0.72 0.46,1.25 0.39,0.53 1.24,0.82 0.85,0.29 2.41,0.29 v 0 q 0.5,0 1.13,-0.04 0.63,-0.04 1.32,-0.13 0.69,-0.09 1.4,-0.24 0.71,-0.15 1.41,-0.35 v 0 3.28 q -1.24,0.3 -2.52,0.47 -1.28,0.17 -2.64,0.17 v 0 h -0.72 q -2.12,0 -3.52,-0.52 -1.4,-0.52 -2.22,-1.41 -0.82,-0.89 -1.16,-2.09 -0.34,-1.2 -0.34,-2.56 z"
         id="path23" />
      <path
         fill="#570026"
         opacity="1"
         d="m 0.42,15.32 h -3.24 v -0.8 L 3.14,1.92 h 3.6 l 5.96,12.6 v 0.8 H 9.46 L 8.3,12.72 H 1.56 Z M 2.9,9.72 H 6.98 L 4.94,5.14 Z"
         id="path24" />
      <path
         fill="#570026"
         opacity="1"
         d="m 23.72,15.32 h -3.6 V 5.12 h -5.2 v -3.2 h 14.02 v 3.2 h -5.22 z"
         id="path25" />
      <path
         fill="#570026"
         opacity="1"
         d="m 34,1.92 h 3.6 v 13.4 H 34 Z"
         id="path26" />
      <path
         fill="#570026"
         opacity="1"
         d="M 43.16,9.14 V 8.1 q 0,-1.36 0.34,-2.56 0.34,-1.2 1.19,-2.09 0.85,-0.89 2.29,-1.41 1.44,-0.52 3.62,-0.52 v 0 h 0.72 q 2.18,0 3.62,0.52 1.44,0.52 2.29,1.41 0.85,0.89 1.19,2.09 0.34,1.2 0.34,2.56 v 0 1.04 q 0,1.36 -0.34,2.56 -0.34,1.2 -1.19,2.09 -0.85,0.89 -2.29,1.41 -1.44,0.52 -3.62,0.52 v 0 H 50.6 q -2.18,0 -3.62,-0.52 Q 45.54,14.68 44.69,13.79 43.84,12.9 43.5,11.7 43.16,10.5 43.16,9.14 Z m 3.6,-0.52 v 0 q 0,0.76 0.07,1.47 0.07,0.71 0.46,1.25 0.39,0.54 1.24,0.86 0.85,0.32 2.43,0.32 v 0 q 1.58,0 2.43,-0.32 0.85,-0.32 1.24,-0.86 0.39,-0.54 0.46,-1.25 0.07,-0.71 0.07,-1.47 v 0 Q 55.16,7.86 55.09,7.16 55.02,6.46 54.63,5.92 54.24,5.38 53.39,5.06 52.54,4.74 50.96,4.74 v 0 q -1.58,0 -2.43,0.32 -0.85,0.32 -1.24,0.86 -0.39,0.54 -0.46,1.24 -0.07,0.7 -0.07,1.46 z"
         id="path27" />
      <path
         fill="#570026"
         opacity="1"
         d="m 67.92,1.92 7.02,8.6 v -8.6 h 3.6 v 13.4 h -3.6 l -7.02,-8.6 v 8.6 h -3.6 V 1.92 Z"
         id="path28" />
    </g>
  </g>
</svg>
